<?xml version="1.0" encoding="UTF-8" standalone="no"?><!-- Generator: Gravit.io --><svg xmlns="http://www.w3.org/2000/svg" style="isolation:isolate" viewBox="0 0 904 122.6" width="904pt" height="122.6pt"><defs><clipPath id="_clipPath_FEFDGrjB98BQe8fPOMiRYB1fNMsjn1ad"><rect width="904" height="122.6"/></clipPath></defs><g clip-path="url(#_clipPath_FEFDGrjB98BQe8fPOMiRYB1fNMsjn1ad)"><linearGradient id="_lgradient_0" x1="0.09757643201109267" y1="0.26787538151687945" x2="0.96831748555435" y2="0.8943140212055762" gradientTransform="matrix(207.151,0,0,122.591,0,0.009)" gradientUnits="userSpaceOnUse"><stop offset="0%" stop-opacity="1" style="stop-color:rgb(81,173,253)"/><stop offset="97.5%" stop-opacity="1" style="stop-color:rgb(90,142,255)"/></linearGradient><path d=" M 44.607 61.911 L 44.607 61.911 L 35.512 64.925 L 35.512 64.925 Q 21.958 71.245 21.26 82.617 L 21.26 82.617 L 21.26 82.617 Q 21.042 86.537 23.079 90.905 L 23.079 90.905 L 23.079 90.905 Q 25.116 95.274 28.248 98.041 L 28.248 98.041 L 28.248 98.041 Q 31.379 100.809 34.888 101.9 L 34.888 101.9 L 34.888 101.9 Q 42.123 104.254 48.732 101.172 L 48.732 101.172 L 48.732 101.172 Q 55.341 98.09 59.464 92.895 L 59.464 92.895 L 59.464 92.895 Q 63.587 87.699 67.084 81.159 L 67.084 81.159 L 73.882 67.079 L 73.882 67.079 Q 81.81 50.154 90.783 41.469 L 90.783 41.469 L 90.783 41.469 Q 99.757 32.785 108.719 28.606 L 108.719 28.606 L 108.719 28.606 Q 117.68 24.427 126.708 22.877 L 126.708 22.877 L 126.708 22.877 Q 135.735 21.326 144.788 21.878 L 144.788 21.878 L 144.788 21.878 Q 153.842 22.429 162.45 25.097 L 162.45 25.097 L 162.45 25.097 Q 171.058 27.766 178.561 32.449 L 178.561 32.449 L 178.561 32.449 Q 194.5 42.064 200.924 55.842 L 200.924 55.842 L 200.924 55.842 Q 207.349 69.62 207.145 79.125 L 207.145 79.125 L 207.145 79.125 Q 206.94 88.63 203.309 96.051 L 203.309 96.051 L 203.309 96.051 Q 196.406 109.907 180.836 117.167 L 180.836 117.167 L 180.836 117.167 Q 166.386 123.906 149.803 121.683 L 149.803 121.683 L 149.803 121.683 Q 134.653 119.61 127.182 111.776 L 127.182 111.776 L 127.182 111.776 Q 125.233 110.229 123.588 106.701 L 123.588 106.701 L 123.588 106.701 Q 121.942 103.172 121.884 100.268 L 121.884 100.268 L 121.884 100.268 Q 121.825 97.363 122.781 94.735 L 122.781 94.735 L 122.781 94.735 Q 124.874 88.986 129.466 86.845 L 129.466 86.845 L 129.466 86.845 Q 132.603 85.382 134.499 86.817 L 134.499 86.817 L 134.499 86.817 Q 143.061 93.188 154.724 95.387 L 154.724 95.387 L 154.724 95.387 Q 167.431 97.78 177.053 93.702 L 177.053 93.702 L 177.053 93.702 Q 186.675 89.624 188.94 82.636 L 188.94 82.636 L 188.94 82.636 Q 191.204 75.648 187.444 67.583 L 187.444 67.583 L 187.444 67.583 Q 183.683 59.518 177.013 54.718 L 177.013 54.718 L 177.013 54.718 Q 170.343 49.919 161.988 48.087 L 161.988 48.087 L 161.988 48.087 Q 144.069 44.169 126.034 52.579 L 126.034 52.579 L 126.034 52.579 Q 114.048 58.168 104.584 72.673 L 104.584 72.673 L 104.584 72.673 Q 100.49 78.81 96.852 85.484 L 96.852 85.484 L 96.852 85.484 Q 93.214 92.158 89.06 98.459 L 89.06 98.459 L 89.06 98.459 Q 79.32 112.956 68.566 117.971 L 68.566 117.971 L 68.566 117.971 Q 57.812 122.985 48.617 122.568 L 48.617 122.568 L 48.617 122.568 Q 39.422 122.151 30.956 118.325 L 30.956 118.325 L 30.956 118.325 Q 12.658 110.084 4.457 92.498 L 4.457 92.498 L 4.457 92.498 Q -3.274 75.919 2.405 62.361 L 2.405 62.361 L 2.405 62.361 Q 7.015 51.484 16.312 47.148 L 16.312 47.148 L 16.312 47.148 Q 26.394 42.447 36.003 44.922 L 36.003 44.922 L 36.003 44.922 Q 43.305 46.835 46.193 50.398 L 46.193 50.398 L 46.193 50.398 Q 52.672 58.15 44.607 61.911 Z  M 53.885 4.388 C 51.423 1.468 48.28 -0.005 44.545 0.009 C 39.896 0.025 35.853 2.183 32.532 6.422 C 29.264 10.592 27.618 15.7 27.638 21.603 C 27.655 26.268 28.895 30.129 31.323 33.08 C 33.785 36.074 36.885 37.586 40.538 37.573 C 44.997 37.557 49.017 35.28 52.485 30.802 C 55.893 26.405 57.61 21.242 57.59 15.458 C 57.574 11.013 56.328 7.289 53.885 4.388 Z " fill-rule="evenodd" fill="url(#_lgradient_0)"/><g clip-path="url(#_clipPath_Gj2V07LiSV6KmgngfJG0TFyrsK44Sg3g)"><text transform="matrix(1,0,0,1,253,93.923)" style="font-family:'Calibri';font-weight:400;font-size:85px;font-style:normal;fill:#5990ff;stroke:none;">Simple Smart Apps</text></g><defs><clipPath id="_clipPath_Gj2V07LiSV6KmgngfJG0TFyrsK44Sg3g"><rect x="0" y="0" width="651" height="85" transform="matrix(1,0,0,1,253,30.173)"/></clipPath></defs></g></svg>