<?xml version="1.0" encoding="UTF-8" standalone="no"?><!-- Generator: Gravit.io --><svg xmlns="http://www.w3.org/2000/svg" xmlns:xlink="http://www.w3.org/1999/xlink" style="isolation:isolate" viewBox="0 0 512 512" width="512pt" height="512pt"><defs><clipPath id="_clipPath_1j7ThSklxq1gDDqUlNhpfmh0Kd1a9Peg"><rect width="512" height="512"/></clipPath></defs><g clip-path="url(#_clipPath_1j7ThSklxq1gDDqUlNhpfmh0Kd1a9Peg)"><linearGradient id="_lgradient_1" x1="0.09757643201109267" y1="0.26787538151687945" x2="0.96831748555435" y2="0.8943140212055762" gradientTransform="matrix(506.369,0,0,299.668,2.815,93.292)" gradientUnits="userSpaceOnUse"><stop offset="0%" stop-opacity="1" style="stop-color:rgb(81,173,253)"/><stop offset="97.5%" stop-opacity="1" style="stop-color:rgb(90,142,255)"/></linearGradient><path d=" M 111.854 244.609 L 111.854 244.609 L 89.621 251.976 L 89.621 251.976 Q 56.489 267.426 54.784 295.223 L 54.784 295.223 L 54.784 295.223 Q 54.252 304.805 59.231 315.484 L 59.231 315.484 L 59.231 315.484 Q 64.211 326.163 71.866 332.928 L 71.866 332.928 L 71.866 332.928 Q 79.52 339.692 88.098 342.36 L 88.098 342.36 L 88.098 342.36 Q 105.782 348.114 121.938 340.581 L 121.938 340.581 L 121.938 340.581 Q 138.093 333.048 148.172 320.347 L 148.172 320.347 L 148.172 320.347 Q 158.251 307.647 166.797 291.661 L 166.797 291.661 L 183.417 257.242 L 183.417 257.242 Q 202.794 215.871 224.73 194.641 L 224.73 194.641 L 224.73 194.641 Q 246.666 173.411 268.572 163.197 L 268.572 163.197 L 268.572 163.197 Q 290.477 152.982 312.545 149.192 L 312.545 149.192 L 312.545 149.192 Q 334.613 145.402 356.743 146.75 L 356.743 146.75 L 356.743 146.75 Q 378.873 148.098 399.915 154.62 L 399.915 154.62 L 399.915 154.62 Q 420.958 161.143 439.298 172.592 L 439.298 172.592 L 439.298 172.592 Q 478.259 196.094 493.964 229.773 L 493.964 229.773 L 493.964 229.773 Q 509.669 263.453 509.169 286.688 L 509.169 286.688 L 509.169 286.688 Q 508.67 309.922 499.794 328.062 L 499.794 328.062 L 499.794 328.062 Q 482.919 361.933 444.858 379.681 L 444.858 379.681 L 444.858 379.681 Q 409.536 396.152 369 390.719 L 369 390.719 L 369 390.719 Q 331.968 385.652 313.704 366.501 L 313.704 366.501 L 313.704 366.501 Q 308.941 362.721 304.919 354.096 L 304.919 354.096 L 304.919 354.096 Q 300.897 345.47 300.753 338.37 L 300.753 338.37 L 300.753 338.37 Q 300.609 331.27 302.947 324.846 L 302.947 324.846 L 302.947 324.846 Q 308.062 310.794 319.288 305.559 L 319.288 305.559 L 319.288 305.559 Q 326.955 301.984 331.59 305.489 L 331.59 305.489 L 331.59 305.489 Q 352.521 321.065 381.029 326.439 L 381.029 326.439 L 381.029 326.439 Q 412.092 332.289 435.612 322.321 L 435.612 322.321 L 435.612 322.321 Q 459.133 312.353 464.668 295.271 L 464.668 295.271 L 464.668 295.271 Q 470.204 278.189 461.011 258.474 L 461.011 258.474 L 461.011 258.474 Q 451.817 238.759 435.513 227.027 L 435.513 227.027 L 435.513 227.027 Q 419.208 215.296 398.785 210.818 L 398.785 210.818 L 398.785 210.818 Q 354.984 201.241 310.899 221.798 L 310.899 221.798 L 310.899 221.798 Q 281.6 235.46 258.465 270.917 L 258.465 270.917 L 258.465 270.917 Q 248.458 285.917 239.565 302.232 L 239.565 302.232 L 239.565 302.232 Q 230.671 318.546 220.519 333.948 L 220.519 333.948 L 220.519 333.948 Q 196.708 369.386 170.421 381.644 L 170.421 381.644 L 170.421 381.644 Q 144.135 393.902 121.658 392.882 L 121.658 392.882 L 121.658 392.882 Q 99.181 391.862 78.486 382.511 L 78.486 382.511 L 78.486 382.511 Q 33.756 362.366 13.71 319.377 L 13.71 319.377 L 13.71 319.377 Q -5.187 278.852 8.694 245.71 L 8.694 245.71 L 8.694 245.71 Q 19.963 219.12 42.69 208.523 L 42.69 208.523 L 42.69 208.523 Q 67.334 197.031 90.822 203.08 L 90.822 203.08 L 90.822 203.08 Q 108.671 207.757 115.732 216.466 L 115.732 216.466 L 115.732 216.466 Q 131.569 235.416 111.854 244.609 Z  M 134.535 103.996 C 128.516 96.86 120.833 93.259 111.703 93.292 C 100.339 93.333 90.456 98.607 82.338 108.97 C 74.35 119.163 70.326 131.648 70.375 146.079 C 70.416 157.483 73.447 166.921 79.383 174.133 C 85.4 181.453 92.978 185.149 101.908 185.116 C 112.808 185.078 122.634 179.511 131.111 168.565 C 139.442 157.816 143.64 145.196 143.59 131.057 C 143.552 120.192 140.507 111.09 134.535 103.996 Z " fill-rule="evenodd" fill="url(#_lgradient_1)"/></g></svg>