<svg width="96" height="96" viewBox="0 0 96 96" fill="none" xmlns="http://www.w3.org/2000/svg">
<rect width="96" height="96" fill="white"/>
<g clip-path="url(#clip0)">
<path d="M65.2308 88.8422H30.6487C28.7715 88.8422 27.2501 87.3049 27.2501 85.4079V17.0098C27.2501 15.1128 28.7715 13.5754 30.6487 13.5754H65.2308C67.108 13.5754 68.6294 15.1128 68.6294 17.0098V85.4079C68.6294 87.3049 67.108 88.8422 65.2308 88.8422Z" fill="#424A60"/>
<path d="M54.8363 8H41.0432V13.5753H54.8363V8Z" fill="#D8A852"/>
<path d="M65.2308 13.5754H30.6487C28.7715 13.5754 27.2501 15.1128 27.2501 17.0098V26.1199H68.6294V17.0098C68.6294 15.1128 67.108 13.5754 65.2308 13.5754Z" fill="#EA6248"/>
<path d="M52.5136 62.6689V40.4986C52.5136 37.9465 50.4654 35.8767 47.9398 35.8767C45.4129 35.8767 43.3661 37.9465 43.3661 40.4986V62.6689C40.8102 64.2676 39.1329 67.1668 39.2433 70.452C39.3936 74.9834 42.9895 78.6924 47.4695 78.9293C52.4888 79.1969 56.6419 75.1632 56.6419 70.1482C56.6419 66.9884 54.9909 64.2188 52.5136 62.6689Z" fill="#EFCE4A"/>
<path d="M50.013 40.9307V64.0752L51.1978 64.8167C53.0406 65.9694 54.1413 67.964 54.1413 70.1481C54.1413 71.8221 53.4957 73.3971 52.3247 74.5805C51.1537 75.7638 49.5964 76.4161 47.9399 76.4161C47.8268 76.4161 47.7137 76.412 47.6006 76.4064C44.4226 76.2377 41.8489 73.5853 41.7413 70.3669C41.6668 68.1257 42.7937 65.9987 44.682 64.8167L45.8654 64.0752V40.9307H50.013Z" fill="#EA6248"/>
<path d="M56.642 70.1482C56.642 70.8507 56.5606 71.5309 56.4075 72.1846L43.3661 59.0059V40.5C43.3661 39.2233 43.8778 38.0664 44.7054 37.2315C45.5344 36.3938 46.6764 35.8767 47.9399 35.8767C50.4668 35.8767 52.5137 37.9465 52.5137 40.5V62.6689C54.9909 64.2188 56.642 66.9884 56.642 70.1482Z" fill="#EFCE4A"/>
<path d="M45.8654 40.9294V61.9331L54.1357 70.4522C54.0516 68.3293 52.9674 66.41 51.1978 65.281L50.0129 64.5256V40.9294H45.8654Z" fill="#EA6248"/>
</g>
<defs>
<clipPath id="clip0">
<rect width="80" height="80.8421" fill="white" transform="translate(7.93982 8)"/>
</clipPath>
</defs>
</svg>
