<?xml version="1.0" encoding="UTF-8" standalone="no"?><!-- Generator: Gravit.io -->
<svg xmlns="http://www.w3.org/2000/svg" style="isolation:isolate" viewBox="0 0 512 512" width="512pt" height="512pt"><defs><clipPath id="_clipPath_okGpqBpZufBOZAePdCO6vAeCOqc5BCjb"><rect width="512" height="512"/></clipPath></defs><g clip-path="url(#_clipPath_okGpqBpZufBOZAePdCO6vAeCOqc5BCjb)"><clipPath id="_clipPath_N81nfsTcH2qaiBC8V0klI2OP0L5GZTEc"><rect x="0" y="0" width="512" height="512" transform="matrix(1,0,0,1,0,0)" fill="rgb(255,255,255)"/></clipPath><g clip-path="url(#_clipPath_N81nfsTcH2qaiBC8V0klI2OP0L5GZTEc)"><g><clipPath id="_clipPath_zgVX0SPrdkNKaN4CDGbjZAAOc4xwYDwM"><rect x="0" y="0" width="512" height="512" transform="matrix(1,0,0,1,0,0)" fill="rgb(255,255,255)"/></clipPath><g clip-path="url(#_clipPath_zgVX0SPrdkNKaN4CDGbjZAAOc4xwYDwM)"><g><g><linearGradient id="_lgradient_0" x1="0.012979209922099957" y1="0.009854209922099951" x2="1.0039702009130906" y2="1.000845200913091" gradientTransform="matrix(555.637,0,0,545.161,-12.649,-13.329)" gradientUnits="userSpaceOnUse"><stop offset="0.26698427149718373%" stop-opacity="1" style="stop-color:rgb(76,205,204)"/><stop offset="15.60541025374377%" stop-opacity="1" style="stop-color:rgb(0,183,195)"/><stop offset="48.835525161310336%" stop-opacity="1" style="stop-color:rgb(0,192,182)"/><stop offset="72.10558512376991%" stop-opacity="1" style="stop-color:rgb(0,178,166)"/><stop offset="95.65760927149718%" stop-opacity="0.9999999999999999" style="stop-color:rgb(2,135,122)"/><stop offset="95.65760927149718%" stop-opacity="1" style="stop-color:rgb(2,134,121)"/><stop offset="95.6576092714972%" stop-opacity="1" style="stop-color:rgb(0,125,113)"/><stop offset="95.6576092714972%" stop-opacity="1" style="stop-color:rgb(0,113,101)"/></linearGradient><path d=" M 89.6 0 L 422.4 0 C 536.652 -36.224 576.81 3.934 512 89.6 L 512 422.4 C 547.951 514.495 507.812 554.653 422.4 512 L 89.6 512 C 10.474 559.274 -29.664 519.136 0 422.4 L 0 89.6 C -35.007 5.407 5.151 -34.731 89.6 0 Z " fill="url(#_lgradient_0)"/><path d=" M 210.25 296.985 C 212.455 287.73 214.957 277.534 217.756 266.406 C 228.786 222.703 232.529 213.657 232.518 210.655 C 232.502 206.022 228.486 202.112 225.596 199.348 C 222.852 196.727 219.027 195.408 214.227 195.425 C 208.541 195.445 202.219 197.26 195.068 200.943 Q 194.686 201.109 194.317 201.284 Q 193.176 201.828 192.167 202.514 C 190.165 203.65 188.1 204.923 185.971 206.336 C 175.283 213.425 163.38 225.413 150.591 241.963 C 149.591 243.259 149.492 245.191 150.354 246.619 C 151.219 248.049 152.813 248.587 154.196 247.925 C 157.639 246.27 171.684 239.499 179.576 235.318 Q 171.864 266.578 165.968 299.572 Q 157.869 344.899 155.688 375.74 Q 155.065 386.955 159.738 391.94 Q 164.411 396.924 176.872 398.482 Q 199.613 401.597 217.682 401.597 Q 267.215 401.597 303.041 382.283 Q 338.867 362.968 357.558 327.921 Q 376.25 292.874 376.25 245.833 Q 376.25 209.696 361.297 184.15 Q 346.343 158.605 318.617 145.365 Q 290.891 132.125 252.885 132.125 Q 226.093 132.125 197.121 139.758 Q 168.149 147.39 146.653 162.032 Q 140.734 166.082 138.242 170.91 Q 135.75 175.739 135.75 183.216 Q 135.75 189.758 138.865 194.275 Q 141.981 198.792 147.277 198.792 Q 151.949 198.792 155.999 195.988 Q 175.626 183.216 200.081 175.428 Q 224.536 167.639 249.458 167.639 Q 288.087 167.639 309.271 187.889 Q 330.455 208.138 330.455 245.21 Q 330.455 300.351 303.508 333.373 Q 276.561 366.395 222.043 366.395 Q 210.205 366.395 200.859 365.46 Q 203.815 332.671 210.25 296.985 Z  M 227.749 77.638 C 224.579 73.879 220.533 71.983 215.724 72 C 209.739 72.021 204.534 74.799 200.259 80.257 C 196.052 85.625 193.932 92.201 193.958 99.801 C 193.98 105.807 195.576 110.778 198.702 114.576 C 201.871 118.432 205.863 120.378 210.565 120.361 C 216.306 120.341 221.481 117.409 225.946 111.644 C 230.334 105.983 232.544 99.336 232.518 91.889 C 232.498 86.167 230.895 81.373 227.749 77.638 Z " fill="rgb(255,255,255)"/></g></g></g></g></g></g></svg>