<?xml version="1.0" encoding="UTF-8" standalone="no"?><!-- Generator: Gravit.io -->
<svg xmlns="http://www.w3.org/2000/svg"
     style="isolation:isolate" viewBox="0 0 452 61.3" width="452pt" height="61.3pt"><defs><clipPath id="_clipPath_Nx8QRVDrMLX3hFqTTjBsTw3R81uAwY7g"><rect width="452" height="61.3"/></clipPath></defs><g clip-path="url(#_clipPath_Nx8QRVDrMLX3hFqTTjBsTw3R81uAwY7g)"><linearGradient id="_lgradient_0" x1="0.09757643201109267" y1="0.26787538151687945" x2="0.96831748555435" y2="0.8943140212055762" gradientTransform="matrix(103.576,0,0,61.296,0,0)" gradientUnits="userSpaceOnUse"><stop offset="0%" stop-opacity="1" style="stop-color:rgb(81,173,253)"/><stop offset="97.5%" stop-opacity="1" style="stop-color:rgb(90,142,255)"/></linearGradient><path d=" M 22.303 30.951 L 22.303 30.951 L 17.756 32.458 L 17.756 32.458 Q 10.979 35.618 10.63 41.304 L 10.63 41.304 L 10.63 41.304 Q 10.521 43.264 11.54 45.448 L 11.54 45.448 L 11.54 45.448 Q 12.558 47.633 14.124 49.016 L 14.124 49.016 L 14.124 49.016 Q 15.69 50.4 17.444 50.946 L 17.444 50.946 L 17.444 50.946 Q 21.061 52.123 24.366 50.582 L 24.366 50.582 L 24.366 50.582 Q 27.67 49.041 29.732 46.443 L 29.732 46.443 L 29.732 46.443 Q 31.794 43.845 33.542 40.575 L 33.542 40.575 L 36.941 33.535 L 36.941 33.535 Q 40.905 25.073 45.392 20.73 L 45.392 20.73 L 45.392 20.73 Q 49.879 16.388 54.359 14.299 L 54.359 14.299 L 54.359 14.299 Q 58.84 12.209 63.354 11.434 L 63.354 11.434 L 63.354 11.434 Q 67.868 10.659 72.394 10.935 L 72.394 10.935 L 72.394 10.935 Q 76.921 11.21 81.225 12.544 L 81.225 12.544 L 81.225 12.544 Q 85.529 13.878 89.281 16.22 L 89.281 16.22 L 89.281 16.22 Q 97.25 21.028 100.462 27.917 L 100.462 27.917 L 100.462 27.917 Q 103.675 34.806 103.572 39.558 L 103.572 39.558 L 103.572 39.558 Q 103.47 44.311 101.655 48.021 L 101.655 48.021 L 101.655 48.021 Q 98.203 54.949 90.418 58.579 L 90.418 58.579 L 90.418 58.579 Q 83.193 61.949 74.901 60.837 L 74.901 60.837 L 74.901 60.837 Q 67.327 59.801 63.591 55.884 L 63.591 55.884 L 63.591 55.884 Q 62.617 55.11 61.794 53.346 L 61.794 53.346 L 61.794 53.346 Q 60.971 51.582 60.942 50.13 L 60.942 50.13 L 60.942 50.13 Q 60.912 48.677 61.391 47.363 L 61.391 47.363 L 61.391 47.363 Q 62.437 44.489 64.733 43.418 L 64.733 43.418 L 64.733 43.418 Q 66.301 42.687 67.249 43.404 L 67.249 43.404 L 67.249 43.404 Q 71.531 46.59 77.362 47.689 L 77.362 47.689 L 77.362 47.689 Q 83.716 48.886 88.527 46.847 L 88.527 46.847 L 88.527 46.847 Q 93.338 44.808 94.47 41.314 L 94.47 41.314 L 94.47 41.314 Q 95.602 37.82 93.722 33.787 L 93.722 33.787 L 93.722 33.787 Q 91.841 29.755 88.506 27.355 L 88.506 27.355 L 88.506 27.355 Q 85.171 24.955 80.994 24.039 L 80.994 24.039 L 80.994 24.039 Q 72.034 22.08 63.017 26.285 L 63.017 26.285 L 63.017 26.285 Q 57.024 29.08 52.292 36.332 L 52.292 36.332 L 52.292 36.332 Q 50.245 39.401 48.426 42.738 L 48.426 42.738 L 48.426 42.738 Q 46.607 46.075 44.53 49.225 L 44.53 49.225 L 44.53 49.225 Q 39.66 56.474 34.283 58.981 L 34.283 58.981 L 34.283 58.981 Q 28.906 61.488 24.309 61.28 L 24.309 61.28 L 24.309 61.28 Q 19.711 61.071 15.478 59.158 L 15.478 59.158 L 15.478 59.158 Q 6.329 55.038 2.228 46.245 L 2.228 46.245 L 2.228 46.245 Q -1.637 37.955 1.202 31.176 L 1.202 31.176 L 1.202 31.176 Q 3.508 25.738 8.156 23.57 L 8.156 23.57 L 8.156 23.57 Q 13.197 21.219 18.001 22.457 L 18.001 22.457 L 18.001 22.457 Q 21.652 23.413 23.097 25.195 L 23.097 25.195 L 23.097 25.195 Q 26.336 29.071 22.303 30.951 Z  M 26.943 2.189 C 25.712 0.73 24.14 -0.007 22.272 0 C 19.948 0.008 17.927 1.087 16.266 3.207 C 14.632 5.292 13.809 7.846 13.819 10.797 C 13.827 13.13 14.447 15.06 15.662 16.536 C 16.892 18.033 18.442 18.789 20.269 18.782 C 22.498 18.774 24.508 17.636 26.242 15.397 C 27.946 13.198 28.805 10.617 28.795 7.725 C 28.787 5.502 28.164 3.64 26.943 2.189 Z " fill-rule="evenodd" fill="url(#_lgradient_0)"/><path d=" M 390.63 45.771 L 390.63 45.771 Q 390.816 46.227 390.816 46.531 L 390.816 46.531 L 390.816 46.531 Q 390.816 47.254 390.24 47.749 L 390.24 47.749 L 390.24 47.749 Q 389.664 48.243 388.958 48.243 L 388.958 48.243 L 388.958 48.243 Q 388.475 48.243 388.048 47.958 L 388.048 47.958 L 388.048 47.958 Q 387.621 47.673 387.398 47.14 L 387.398 47.14 L 384.946 41.435 L 371.349 41.435 L 368.898 47.14 L 368.898 47.14 Q 368.675 47.673 368.229 47.958 L 368.229 47.958 L 368.229 47.958 Q 367.783 48.243 367.3 48.243 L 367.3 48.243 L 367.3 48.243 Q 366.557 48.243 365.981 47.749 L 365.981 47.749 L 365.981 47.749 Q 365.406 47.254 365.406 46.531 L 365.406 46.531 L 365.406 46.531 Q 365.406 46.227 365.591 45.771 L 365.591 45.771 L 376.067 22.303 L 376.067 22.303 Q 376.327 21.695 376.903 21.352 L 376.903 21.352 L 376.903 21.352 Q 377.479 21.01 378.111 21.01 L 378.111 21.01 L 378.111 21.01 Q 378.742 21.01 379.318 21.352 L 379.318 21.352 L 379.318 21.352 Q 379.894 21.695 380.154 22.303 L 380.154 22.303 L 390.63 45.771 Z  M 378.148 25.726 L 372.724 38.316 L 383.609 38.316 L 378.148 25.726 Z  M 404.078 29.035 L 404.078 29.035 Q 406.418 29.035 408.257 30.253 L 408.257 30.253 L 408.257 30.253 Q 410.096 31.47 411.117 33.676 L 411.117 33.676 L 411.117 33.676 Q 412.139 35.882 412.139 38.772 L 412.139 38.772 L 412.139 38.772 Q 412.139 41.625 411.136 43.793 L 411.136 43.793 L 411.136 43.793 Q 410.133 45.961 408.294 47.14 L 408.294 47.14 L 408.294 47.14 Q 406.455 48.319 404.078 48.319 L 404.078 48.319 L 404.078 48.319 Q 402.035 48.319 400.474 47.425 L 400.474 47.425 L 400.474 47.425 Q 398.914 46.531 398.097 44.858 L 398.097 44.858 L 398.097 53.34 L 398.097 53.34 Q 398.097 54.138 397.595 54.614 L 397.595 54.614 L 397.595 54.614 Q 397.094 55.089 396.276 55.089 L 396.276 55.089 L 396.276 55.089 Q 395.422 55.089 394.883 54.595 L 394.883 54.595 L 394.883 54.595 Q 394.345 54.1 394.345 53.264 L 394.345 53.264 L 394.345 30.975 L 394.345 30.975 Q 394.345 30.138 394.865 29.625 L 394.865 29.625 L 394.865 29.625 Q 395.385 29.112 396.239 29.112 L 396.239 29.112 L 396.239 29.112 Q 397.057 29.112 397.577 29.625 L 397.577 29.625 L 397.577 29.625 Q 398.097 30.138 398.097 30.975 L 398.097 30.975 L 398.097 32.535 L 398.097 32.535 Q 398.914 30.861 400.474 29.948 L 400.474 29.948 L 400.474 29.948 Q 402.035 29.035 404.078 29.035 L 404.078 29.035 Z  M 403.186 45.276 L 403.186 45.276 Q 405.638 45.276 406.975 43.584 L 406.975 43.584 L 406.975 43.584 Q 408.313 41.891 408.313 38.772 L 408.313 38.772 L 408.313 38.772 Q 408.313 35.615 406.957 33.866 L 406.957 33.866 L 406.957 33.866 Q 405.601 32.116 403.186 32.116 L 403.186 32.116 L 403.186 32.116 Q 400.734 32.116 399.416 33.828 L 399.416 33.828 L 399.416 33.828 Q 398.097 35.539 398.097 38.696 L 398.097 38.696 L 398.097 38.696 Q 398.097 41.853 399.416 43.565 L 399.416 43.565 L 399.416 43.565 Q 400.734 45.276 403.186 45.276 L 403.186 45.276 Z  M 426.033 29.035 L 426.033 29.035 Q 428.373 29.035 430.212 30.253 L 430.212 30.253 L 430.212 30.253 Q 432.051 31.47 433.073 33.676 L 433.073 33.676 L 433.073 33.676 Q 434.094 35.882 434.094 38.772 L 434.094 38.772 L 434.094 38.772 Q 434.094 41.625 433.091 43.793 L 433.091 43.793 L 433.091 43.793 Q 432.088 45.961 430.249 47.14 L 430.249 47.14 L 430.249 47.14 Q 428.41 48.319 426.033 48.319 L 426.033 48.319 L 426.033 48.319 Q 423.99 48.319 422.429 47.425 L 422.429 47.425 L 422.429 47.425 Q 420.869 46.531 420.052 44.858 L 420.052 44.858 L 420.052 53.34 L 420.052 53.34 Q 420.052 54.138 419.55 54.614 L 419.55 54.614 L 419.55 54.614 Q 419.049 55.089 418.232 55.089 L 418.232 55.089 L 418.232 55.089 Q 417.377 55.089 416.838 54.595 L 416.838 54.595 L 416.838 54.595 Q 416.3 54.1 416.3 53.264 L 416.3 53.264 L 416.3 30.975 L 416.3 30.975 Q 416.3 30.138 416.82 29.625 L 416.82 29.625 L 416.82 29.625 Q 417.34 29.112 418.194 29.112 L 418.194 29.112 L 418.194 29.112 Q 419.012 29.112 419.532 29.625 L 419.532 29.625 L 419.532 29.625 Q 420.052 30.138 420.052 30.975 L 420.052 30.975 L 420.052 32.535 L 420.052 32.535 Q 420.869 30.861 422.429 29.948 L 422.429 29.948 L 422.429 29.948 Q 423.99 29.035 426.033 29.035 L 426.033 29.035 Z  M 425.141 45.276 L 425.141 45.276 Q 427.593 45.276 428.93 43.584 L 428.93 43.584 L 428.93 43.584 Q 430.268 41.891 430.268 38.772 L 430.268 38.772 L 430.268 38.772 Q 430.268 35.615 428.912 33.866 L 428.912 33.866 L 428.912 33.866 Q 427.556 32.116 425.141 32.116 L 425.141 32.116 L 425.141 32.116 Q 422.689 32.116 421.371 33.828 L 421.371 33.828 L 421.371 33.828 Q 420.052 35.539 420.052 38.696 L 420.052 38.696 L 420.052 38.696 Q 420.052 41.853 421.371 43.565 L 421.371 43.565 L 421.371 43.565 Q 422.689 45.276 425.141 45.276 L 425.141 45.276 Z  M 444.57 48.319 L 444.57 48.319 Q 440.781 48.319 438.366 46.722 L 438.366 46.722 L 438.366 46.722 Q 437.698 46.303 437.419 45.847 L 437.419 45.847 L 437.419 45.847 Q 437.14 45.39 437.14 44.82 L 437.14 44.82 L 437.14 44.82 Q 437.14 44.211 437.475 43.793 L 437.475 43.793 L 437.475 43.793 Q 437.809 43.375 438.329 43.375 L 438.329 43.375 L 438.329 43.375 Q 438.812 43.375 439.852 43.983 L 439.852 43.983 L 439.852 43.983 Q 440.967 44.592 442.025 44.972 L 442.025 44.972 L 442.025 44.972 Q 443.084 45.352 444.682 45.352 L 444.682 45.352 L 444.682 45.352 Q 446.465 45.352 447.468 44.706 L 447.468 44.706 L 447.468 44.706 Q 448.471 44.059 448.471 42.88 L 448.471 42.88 L 448.471 42.88 Q 448.471 42.119 448.081 41.663 L 448.081 41.663 L 448.081 41.663 Q 447.691 41.207 446.725 40.845 L 446.725 40.845 L 446.725 40.845 Q 445.759 40.484 443.864 40.066 L 443.864 40.066 L 443.864 40.066 Q 440.595 39.343 439.165 38.107 L 439.165 38.107 L 439.165 38.107 Q 437.735 36.871 437.735 34.741 L 437.735 34.741 L 437.735 34.741 Q 437.735 33.105 438.663 31.793 L 438.663 31.793 L 438.663 31.793 Q 439.592 30.481 441.227 29.758 L 441.227 29.758 L 441.227 29.758 Q 442.861 29.035 444.942 29.035 L 444.942 29.035 L 444.942 29.035 Q 446.428 29.035 447.839 29.435 L 447.839 29.435 L 447.839 29.435 Q 449.251 29.834 450.328 30.595 L 450.328 30.595 L 450.328 30.595 Q 451.554 31.432 451.554 32.535 L 451.554 32.535 L 451.554 32.535 Q 451.554 33.143 451.201 33.562 L 451.201 33.562 L 451.201 33.562 Q 450.848 33.98 450.365 33.98 L 450.365 33.98 L 450.365 33.98 Q 450.031 33.98 449.697 33.828 L 449.697 33.828 L 449.697 33.828 Q 449.362 33.676 448.805 33.333 L 448.805 33.333 L 448.805 33.333 Q 447.802 32.725 446.929 32.383 L 446.929 32.383 L 446.929 32.383 Q 446.056 32.04 444.756 32.04 L 444.756 32.04 L 444.756 32.04 Q 443.196 32.04 442.248 32.725 L 442.248 32.725 L 442.248 32.725 Q 441.301 33.409 441.301 34.589 L 441.301 34.589 L 441.301 34.589 Q 441.301 35.654 442.174 36.243 L 442.174 36.243 L 442.174 36.243 Q 443.047 36.833 445.462 37.365 L 445.462 37.365 L 445.462 37.365 Q 447.951 37.898 449.362 38.582 L 449.362 38.582 L 449.362 38.582 Q 450.774 39.267 451.387 40.275 L 451.387 40.275 L 451.387 40.275 Q 452 41.283 452 42.842 L 452 42.842 L 452 42.842 Q 452 45.314 449.975 46.817 L 449.975 46.817 L 449.975 46.817 Q 447.951 48.319 444.57 48.319 L 444.57 48.319 Z  M 261.351 48.357 L 261.351 48.357 Q 258.528 48.357 255.983 47.558 L 255.983 47.558 L 255.983 47.558 Q 253.438 46.76 251.915 45.352 L 251.915 45.352 L 251.915 45.352 Q 251.209 44.744 251.209 43.793 L 251.209 43.793 L 251.209 43.793 Q 251.209 43.108 251.581 42.633 L 251.581 42.633 L 251.581 42.633 Q 251.952 42.157 252.472 42.157 L 252.472 42.157 L 252.472 42.157 Q 252.993 42.157 253.736 42.652 L 253.736 42.652 L 253.736 42.652 Q 257.042 45.162 261.277 45.162 L 261.277 45.162 L 261.277 45.162 Q 264.249 45.162 265.846 44.021 L 265.846 44.021 L 265.846 44.021 Q 267.444 42.88 267.444 40.75 L 267.444 40.75 L 267.444 40.75 Q 267.444 39.077 265.958 38.24 L 265.958 38.24 L 265.958 38.24 Q 264.472 37.403 261.202 36.642 L 261.202 36.642 L 261.202 36.642 Q 258.082 35.958 256.076 35.083 L 256.076 35.083 L 256.076 35.083 Q 254.07 34.208 252.937 32.706 L 252.937 32.706 L 252.937 32.706 Q 251.804 31.203 251.804 28.883 L 251.804 28.883 L 251.804 28.883 Q 251.804 26.563 253.048 24.757 L 253.048 24.757 L 253.048 24.757 Q 254.293 22.95 256.522 21.942 L 256.522 21.942 L 256.522 21.942 Q 258.751 20.934 261.611 20.934 L 261.611 20.934 L 261.611 20.934 Q 264.249 20.934 266.478 21.695 L 266.478 21.695 L 266.478 21.695 Q 268.707 22.455 270.267 23.939 L 270.267 23.939 L 270.267 23.939 Q 271.01 24.585 271.01 25.498 L 271.01 25.498 L 271.01 25.498 Q 271.01 26.145 270.62 26.639 L 270.62 26.639 L 270.62 26.639 Q 270.23 27.134 269.71 27.134 L 269.71 27.134 L 269.71 27.134 Q 269.227 27.134 268.484 26.639 L 268.484 26.639 L 268.484 26.639 Q 266.775 25.308 265.27 24.719 L 265.27 24.719 L 265.27 24.719 Q 263.766 24.129 261.648 24.129 L 261.648 24.129 L 261.648 24.129 Q 258.788 24.129 257.19 25.327 L 257.19 25.327 L 257.19 25.327 Q 255.593 26.525 255.593 28.655 L 255.593 28.655 L 255.593 28.655 Q 255.593 30.481 257.005 31.413 L 257.005 31.413 L 257.005 31.413 Q 258.416 32.344 261.537 33.105 L 261.537 33.105 L 261.537 33.105 Q 264.806 33.866 266.831 34.684 L 266.831 34.684 L 266.831 34.684 Q 268.855 35.501 270.063 36.928 L 270.063 36.928 L 270.063 36.928 Q 271.27 38.354 271.27 40.598 L 271.27 40.598 L 271.27 40.598 Q 271.27 42.88 270.025 44.649 L 270.025 44.649 L 270.025 44.649 Q 268.781 46.417 266.533 47.387 L 266.533 47.387 L 266.533 47.387 Q 264.286 48.357 261.351 48.357 L 261.351 48.357 Z  M 296.345 29.035 L 296.345 29.035 Q 302.438 29.035 302.438 36.528 L 302.438 36.528 L 302.438 46.417 L 302.438 46.417 Q 302.438 47.292 301.918 47.768 L 301.918 47.768 L 301.918 47.768 Q 301.398 48.243 300.543 48.243 L 300.543 48.243 L 300.543 48.243 Q 299.726 48.243 299.206 47.768 L 299.206 47.768 L 299.206 47.768 Q 298.686 47.292 298.686 46.417 L 298.686 46.417 L 298.686 36.566 L 298.686 36.566 Q 298.686 34.246 297.869 33.2 L 297.869 33.2 L 297.869 33.2 Q 297.051 32.154 295.305 32.154 L 295.305 32.154 L 295.305 32.154 Q 293.262 32.154 292.073 33.581 L 292.073 33.581 L 292.073 33.581 Q 290.885 35.007 290.885 37.479 L 290.885 37.479 L 290.885 46.417 L 290.885 46.417 Q 290.885 47.292 290.364 47.768 L 290.364 47.768 L 290.364 47.768 Q 289.844 48.243 288.99 48.243 L 288.99 48.243 L 288.99 48.243 Q 288.173 48.243 287.653 47.768 L 287.653 47.768 L 287.653 47.768 Q 287.133 47.292 287.133 46.417 L 287.133 46.417 L 287.133 36.566 L 287.133 36.566 Q 287.133 34.246 286.315 33.2 L 286.315 33.2 L 286.315 33.2 Q 285.498 32.154 283.752 32.154 L 283.752 32.154 L 283.752 32.154 Q 281.709 32.154 280.501 33.581 L 280.501 33.581 L 280.501 33.581 Q 279.294 35.007 279.294 37.479 L 279.294 37.479 L 279.294 46.417 L 279.294 46.417 Q 279.294 47.292 278.774 47.768 L 278.774 47.768 L 278.774 47.768 Q 278.254 48.243 277.437 48.243 L 277.437 48.243 L 277.437 48.243 Q 276.619 48.243 276.081 47.768 L 276.081 47.768 L 276.081 47.768 Q 275.542 47.292 275.542 46.417 L 275.542 46.417 L 275.542 30.937 L 275.542 30.937 Q 275.542 30.1 276.099 29.606 L 276.099 29.606 L 276.099 29.606 Q 276.656 29.112 277.437 29.112 L 277.437 29.112 L 277.437 29.112 Q 278.217 29.112 278.718 29.587 L 278.718 29.587 L 278.718 29.587 Q 279.22 30.062 279.22 30.899 L 279.22 30.899 L 279.22 32.306 L 279.22 32.306 Q 280.037 30.709 281.486 29.872 L 281.486 29.872 L 281.486 29.872 Q 282.935 29.035 284.829 29.035 L 284.829 29.035 L 284.829 29.035 Q 286.91 29.035 288.266 29.91 L 288.266 29.91 L 288.266 29.91 Q 289.621 30.785 290.29 32.611 L 290.29 32.611 L 290.29 32.611 Q 291.107 30.975 292.705 30.005 L 292.705 30.005 L 292.705 30.005 Q 294.302 29.035 296.345 29.035 L 296.345 29.035 Z  M 315.18 29.035 L 315.18 29.035 Q 318.783 29.035 320.548 30.899 L 320.548 30.899 L 320.548 30.899 Q 322.313 32.763 322.313 36.566 L 322.313 36.566 L 322.313 46.417 L 322.313 46.417 Q 322.313 47.292 321.83 47.768 L 321.83 47.768 L 321.83 47.768 Q 321.347 48.243 320.492 48.243 L 320.492 48.243 L 320.492 48.243 Q 319.675 48.243 319.192 47.749 L 319.192 47.749 L 319.192 47.749 Q 318.709 47.254 318.709 46.417 L 318.709 46.417 L 318.709 45.01 L 318.709 45.01 Q 318.003 46.608 316.61 47.463 L 316.61 47.463 L 316.61 47.463 Q 315.217 48.319 313.36 48.319 L 313.36 48.319 L 313.36 48.319 Q 311.577 48.319 310.109 47.577 L 310.109 47.577 L 310.109 47.577 Q 308.642 46.836 307.787 45.543 L 307.787 45.543 L 307.787 45.543 Q 306.933 44.249 306.933 42.614 L 306.933 42.614 L 306.933 42.614 Q 306.896 40.56 307.936 39.4 L 307.936 39.4 L 307.936 39.4 Q 308.976 38.24 311.317 37.726 L 311.317 37.726 L 311.317 37.726 Q 313.657 37.213 317.818 37.213 L 317.818 37.213 L 318.672 37.213 L 318.672 36.11 L 318.672 36.11 Q 318.672 33.98 317.818 33.029 L 317.818 33.029 L 317.818 33.029 Q 316.963 32.078 315.069 32.078 L 315.069 32.078 L 315.069 32.078 Q 313.768 32.078 312.617 32.421 L 312.617 32.421 L 312.617 32.421 Q 311.465 32.763 310.091 33.409 L 310.091 33.409 L 310.091 33.409 Q 309.088 33.98 308.679 33.98 L 308.679 33.98 L 308.679 33.98 Q 308.122 33.98 307.769 33.562 L 307.769 33.562 L 307.769 33.562 Q 307.416 33.143 307.416 32.497 L 307.416 32.497 L 307.416 32.497 Q 307.416 31.926 307.732 31.489 L 307.732 31.489 L 307.732 31.489 Q 308.047 31.051 308.753 30.633 L 308.753 30.633 L 308.753 30.633 Q 310.053 29.91 311.799 29.473 L 311.799 29.473 L 311.799 29.473 Q 313.545 29.035 315.18 29.035 L 315.18 29.035 Z  M 314.028 45.467 L 314.028 45.467 Q 316.072 45.467 317.372 44.04 L 317.372 44.04 L 317.372 44.04 Q 318.672 42.614 318.672 40.37 L 318.672 40.37 L 318.672 39.381 L 318.003 39.381 L 318.003 39.381 Q 315.106 39.381 313.545 39.647 L 313.545 39.647 L 313.545 39.647 Q 311.985 39.913 311.317 40.541 L 311.317 40.541 L 311.317 40.541 Q 310.648 41.169 310.648 42.348 L 310.648 42.348 L 310.648 42.348 Q 310.648 43.717 311.614 44.592 L 311.614 44.592 L 311.614 44.592 Q 312.58 45.467 314.028 45.467 L 314.028 45.467 Z  M 336.949 29.112 L 336.949 29.112 Q 338.733 28.997 338.733 30.671 L 338.733 30.671 L 338.733 30.671 Q 338.733 31.508 338.324 31.926 L 338.324 31.926 L 338.324 31.926 Q 337.915 32.344 336.912 32.421 L 336.912 32.421 L 335.798 32.535 L 335.798 32.535 Q 333.457 32.763 332.324 34.208 L 332.324 34.208 L 332.324 34.208 Q 331.191 35.654 331.191 37.707 L 331.191 37.707 L 331.191 46.417 L 331.191 46.417 Q 331.191 47.33 330.671 47.787 L 330.671 47.787 L 330.671 47.787 Q 330.151 48.243 329.334 48.243 L 329.334 48.243 L 329.334 48.243 Q 328.517 48.243 327.978 47.787 L 327.978 47.787 L 327.978 47.787 Q 327.439 47.33 327.439 46.417 L 327.439 46.417 L 327.439 30.937 L 327.439 30.937 Q 327.439 30.062 327.978 29.587 L 327.978 29.587 L 327.978 29.587 Q 328.517 29.112 329.334 29.112 L 329.334 29.112 L 329.334 29.112 Q 330.077 29.112 330.578 29.587 L 330.578 29.587 L 330.578 29.587 Q 331.08 30.062 331.08 30.899 L 331.08 30.899 L 331.08 32.725 L 331.08 32.725 Q 331.823 31.051 333.234 30.177 L 333.234 30.177 L 333.234 30.177 Q 334.646 29.302 336.429 29.15 L 336.429 29.15 L 336.949 29.112 Z  M 351.475 45.314 L 351.475 45.314 Q 352.292 45.39 352.645 45.752 L 352.645 45.752 L 352.645 45.752 Q 352.998 46.113 352.998 46.76 L 352.998 46.76 L 352.998 46.76 Q 352.998 47.52 352.422 47.92 L 352.422 47.92 L 352.422 47.92 Q 351.846 48.319 350.732 48.243 L 350.732 48.243 L 349.729 48.167 L 349.729 48.167 Q 346.72 47.939 345.234 46.284 L 345.234 46.284 L 345.234 46.284 Q 343.748 44.63 343.748 41.397 L 343.748 41.397 L 343.748 32.459 L 341.519 32.459 L 341.519 32.459 Q 339.884 32.459 339.884 30.975 L 339.884 30.975 L 339.884 30.975 Q 339.884 30.291 340.311 29.891 L 340.311 29.891 L 340.311 29.891 Q 340.739 29.492 341.519 29.492 L 341.519 29.492 L 343.748 29.492 L 343.748 25.574 L 343.748 25.574 Q 343.748 24.699 344.249 24.205 L 344.249 24.205 L 344.249 24.205 Q 344.751 23.711 345.605 23.711 L 345.605 23.711 L 345.605 23.711 Q 346.46 23.711 346.98 24.205 L 346.98 24.205 L 346.98 24.205 Q 347.5 24.699 347.5 25.574 L 347.5 25.574 L 347.5 29.492 L 351.177 29.492 L 351.177 29.492 Q 351.958 29.492 352.385 29.891 L 352.385 29.891 L 352.385 29.891 Q 352.812 30.291 352.812 30.975 L 352.812 30.975 L 352.812 30.975 Q 352.812 31.698 352.385 32.078 L 352.385 32.078 L 352.385 32.078 Q 351.958 32.459 351.177 32.459 L 351.177 32.459 L 347.5 32.459 L 347.5 41.663 L 347.5 41.663 Q 347.5 43.451 348.224 44.287 L 348.224 44.287 L 348.224 44.287 Q 348.949 45.124 350.434 45.238 L 350.434 45.238 L 351.475 45.314 Z  M 136.642 48.357 L 136.642 48.357 Q 133.818 48.357 131.274 47.558 L 131.274 47.558 L 131.274 47.558 Q 128.729 46.76 127.206 45.352 L 127.206 45.352 L 127.206 45.352 Q 126.5 44.744 126.5 43.793 L 126.5 43.793 L 126.5 43.793 Q 126.5 43.108 126.871 42.633 L 126.871 42.633 L 126.871 42.633 Q 127.243 42.157 127.763 42.157 L 127.763 42.157 L 127.763 42.157 Q 128.283 42.157 129.026 42.652 L 129.026 42.652 L 129.026 42.652 Q 132.332 45.162 136.567 45.162 L 136.567 45.162 L 136.567 45.162 Q 139.539 45.162 141.137 44.021 L 141.137 44.021 L 141.137 44.021 Q 142.734 42.88 142.734 40.75 L 142.734 40.75 L 142.734 40.75 Q 142.734 39.077 141.248 38.24 L 141.248 38.24 L 141.248 38.24 Q 139.762 37.403 136.493 36.642 L 136.493 36.642 L 136.493 36.642 Q 133.373 35.958 131.367 35.083 L 131.367 35.083 L 131.367 35.083 Q 129.36 34.208 128.227 32.706 L 128.227 32.706 L 128.227 32.706 Q 127.094 31.203 127.094 28.883 L 127.094 28.883 L 127.094 28.883 Q 127.094 26.563 128.339 24.757 L 128.339 24.757 L 128.339 24.757 Q 129.583 22.95 131.812 21.942 L 131.812 21.942 L 131.812 21.942 Q 134.041 20.934 136.902 20.934 L 136.902 20.934 L 136.902 20.934 Q 139.539 20.934 141.768 21.695 L 141.768 21.695 L 141.768 21.695 Q 143.997 22.455 145.557 23.939 L 145.557 23.939 L 145.557 23.939 Q 146.3 24.585 146.3 25.498 L 146.3 25.498 L 146.3 25.498 Q 146.3 26.145 145.91 26.639 L 145.91 26.639 L 145.91 26.639 Q 145.52 27.134 145 27.134 L 145 27.134 L 145 27.134 Q 144.517 27.134 143.774 26.639 L 143.774 26.639 L 143.774 26.639 Q 142.065 25.308 140.561 24.719 L 140.561 24.719 L 140.561 24.719 Q 139.056 24.129 136.939 24.129 L 136.939 24.129 L 136.939 24.129 Q 134.078 24.129 132.481 25.327 L 132.481 25.327 L 132.481 25.327 Q 130.884 26.525 130.884 28.655 L 130.884 28.655 L 130.884 28.655 Q 130.884 30.481 132.295 31.413 L 132.295 31.413 L 132.295 31.413 Q 133.707 32.344 136.827 33.105 L 136.827 33.105 L 136.827 33.105 Q 140.097 33.866 142.121 34.684 L 142.121 34.684 L 142.121 34.684 Q 144.146 35.501 145.353 36.928 L 145.353 36.928 L 145.353 36.928 Q 146.56 38.354 146.56 40.598 L 146.56 40.598 L 146.56 40.598 Q 146.56 42.88 145.316 44.649 L 145.316 44.649 L 145.316 44.649 Q 144.072 46.417 141.824 47.387 L 141.824 47.387 L 141.824 47.387 Q 139.576 48.357 136.642 48.357 L 136.642 48.357 Z  M 152.727 48.243 L 152.727 48.243 Q 151.91 48.243 151.371 47.787 L 151.371 47.787 L 151.371 47.787 Q 150.833 47.33 150.833 46.417 L 150.833 46.417 L 150.833 30.975 L 150.833 30.975 Q 150.833 30.062 151.371 29.587 L 151.371 29.587 L 151.371 29.587 Q 151.91 29.112 152.727 29.112 L 152.727 29.112 L 152.727 29.112 Q 153.545 29.112 154.065 29.587 L 154.065 29.587 L 154.065 29.587 Q 154.585 30.062 154.585 30.975 L 154.585 30.975 L 154.585 46.417 L 154.585 46.417 Q 154.585 47.33 154.065 47.787 L 154.065 47.787 L 154.065 47.787 Q 153.545 48.243 152.727 48.243 L 152.727 48.243 Z  M 152.727 25.384 L 152.727 25.384 Q 151.65 25.384 151.018 24.776 L 151.018 24.776 L 151.018 24.776 Q 150.387 24.167 150.387 23.178 L 150.387 23.178 L 150.387 23.178 Q 150.387 22.189 151.018 21.6 L 151.018 21.6 L 151.018 21.6 Q 151.65 21.01 152.727 21.01 L 152.727 21.01 L 152.727 21.01 Q 153.767 21.01 154.418 21.6 L 154.418 21.6 L 154.418 21.6 Q 155.068 22.189 155.068 23.178 L 155.068 23.178 L 155.068 23.178 Q 155.068 24.167 154.436 24.776 L 154.436 24.776 L 154.436 24.776 Q 153.805 25.384 152.727 25.384 L 152.727 25.384 Z  M 180.626 29.035 L 180.626 29.035 Q 186.719 29.035 186.719 36.528 L 186.719 36.528 L 186.719 46.417 L 186.719 46.417 Q 186.719 47.292 186.199 47.768 L 186.199 47.768 L 186.199 47.768 Q 185.678 48.243 184.824 48.243 L 184.824 48.243 L 184.824 48.243 Q 184.007 48.243 183.487 47.768 L 183.487 47.768 L 183.487 47.768 Q 182.967 47.292 182.967 46.417 L 182.967 46.417 L 182.967 36.566 L 182.967 36.566 Q 182.967 34.246 182.149 33.2 L 182.149 33.2 L 182.149 33.2 Q 181.332 32.154 179.586 32.154 L 179.586 32.154 L 179.586 32.154 Q 177.543 32.154 176.354 33.581 L 176.354 33.581 L 176.354 33.581 Q 175.165 35.007 175.165 37.479 L 175.165 37.479 L 175.165 46.417 L 175.165 46.417 Q 175.165 47.292 174.645 47.768 L 174.645 47.768 L 174.645 47.768 Q 174.125 48.243 173.271 48.243 L 173.271 48.243 L 173.271 48.243 Q 172.453 48.243 171.933 47.768 L 171.933 47.768 L 171.933 47.768 Q 171.413 47.292 171.413 46.417 L 171.413 46.417 L 171.413 36.566 L 171.413 36.566 Q 171.413 34.246 170.596 33.2 L 170.596 33.2 L 170.596 33.2 Q 169.779 32.154 168.033 32.154 L 168.033 32.154 L 168.033 32.154 Q 165.989 32.154 164.782 33.581 L 164.782 33.581 L 164.782 33.581 Q 163.575 35.007 163.575 37.479 L 163.575 37.479 L 163.575 46.417 L 163.575 46.417 Q 163.575 47.292 163.055 47.768 L 163.055 47.768 L 163.055 47.768 Q 162.535 48.243 161.717 48.243 L 161.717 48.243 L 161.717 48.243 Q 160.9 48.243 160.361 47.768 L 160.361 47.768 L 160.361 47.768 Q 159.823 47.292 159.823 46.417 L 159.823 46.417 L 159.823 30.937 L 159.823 30.937 Q 159.823 30.1 160.38 29.606 L 160.38 29.606 L 160.38 29.606 Q 160.937 29.112 161.717 29.112 L 161.717 29.112 L 161.717 29.112 Q 162.497 29.112 162.999 29.587 L 162.999 29.587 L 162.999 29.587 Q 163.5 30.062 163.5 30.899 L 163.5 30.899 L 163.5 32.306 L 163.5 32.306 Q 164.318 30.709 165.767 29.872 L 165.767 29.872 L 165.767 29.872 Q 167.215 29.035 169.11 29.035 L 169.11 29.035 L 169.11 29.035 Q 171.19 29.035 172.546 29.91 L 172.546 29.91 L 172.546 29.91 Q 173.902 30.785 174.571 32.611 L 174.571 32.611 L 174.571 32.611 Q 175.388 30.975 176.986 30.005 L 176.986 30.005 L 176.986 30.005 Q 178.583 29.035 180.626 29.035 L 180.626 29.035 Z  M 201.578 29.035 L 201.578 29.035 Q 203.919 29.035 205.758 30.253 L 205.758 30.253 L 205.758 30.253 Q 207.596 31.47 208.618 33.676 L 208.618 33.676 L 208.618 33.676 Q 209.64 35.882 209.64 38.772 L 209.64 38.772 L 209.64 38.772 Q 209.64 41.625 208.637 43.793 L 208.637 43.793 L 208.637 43.793 Q 207.634 45.961 205.795 47.14 L 205.795 47.14 L 205.795 47.14 Q 203.956 48.319 201.578 48.319 L 201.578 48.319 L 201.578 48.319 Q 199.535 48.319 197.975 47.425 L 197.975 47.425 L 197.975 47.425 Q 196.415 46.531 195.597 44.858 L 195.597 44.858 L 195.597 53.34 L 195.597 53.34 Q 195.597 54.138 195.096 54.614 L 195.096 54.614 L 195.096 54.614 Q 194.594 55.089 193.777 55.089 L 193.777 55.089 L 193.777 55.089 Q 192.923 55.089 192.384 54.595 L 192.384 54.595 L 192.384 54.595 Q 191.845 54.1 191.845 53.264 L 191.845 53.264 L 191.845 30.975 L 191.845 30.975 Q 191.845 30.138 192.365 29.625 L 192.365 29.625 L 192.365 29.625 Q 192.885 29.112 193.74 29.112 L 193.74 29.112 L 193.74 29.112 Q 194.557 29.112 195.077 29.625 L 195.077 29.625 L 195.077 29.625 Q 195.597 30.138 195.597 30.975 L 195.597 30.975 L 195.597 32.535 L 195.597 32.535 Q 196.415 30.861 197.975 29.948 L 197.975 29.948 L 197.975 29.948 Q 199.535 29.035 201.578 29.035 L 201.578 29.035 Z  M 200.687 45.276 L 200.687 45.276 Q 203.139 45.276 204.476 43.584 L 204.476 43.584 L 204.476 43.584 Q 205.813 41.891 205.813 38.772 L 205.813 38.772 L 205.813 38.772 Q 205.813 35.615 204.457 33.866 L 204.457 33.866 L 204.457 33.866 Q 203.101 32.116 200.687 32.116 L 200.687 32.116 L 200.687 32.116 Q 198.235 32.116 196.916 33.828 L 196.916 33.828 L 196.916 33.828 Q 195.597 35.539 195.597 38.696 L 195.597 38.696 L 195.597 38.696 Q 195.597 41.853 196.916 43.565 L 196.916 43.565 L 196.916 43.565 Q 198.235 45.276 200.687 45.276 L 200.687 45.276 Z  M 215.695 48.243 L 215.695 48.243 Q 214.878 48.243 214.339 47.787 L 214.339 47.787 L 214.339 47.787 Q 213.8 47.33 213.8 46.417 L 213.8 46.417 L 213.8 22.912 L 213.8 22.912 Q 213.8 21.999 214.339 21.524 L 214.339 21.524 L 214.339 21.524 Q 214.878 21.048 215.695 21.048 L 215.695 21.048 L 215.695 21.048 Q 216.512 21.048 217.032 21.524 L 217.032 21.524 L 217.032 21.524 Q 217.552 21.999 217.552 22.912 L 217.552 22.912 L 217.552 46.417 L 217.552 46.417 Q 217.552 47.33 217.032 47.787 L 217.032 47.787 L 217.032 47.787 Q 216.512 48.243 215.695 48.243 L 215.695 48.243 Z  M 236.981 43.375 L 236.981 43.375 Q 237.501 43.375 237.836 43.793 L 237.836 43.793 L 237.836 43.793 Q 238.17 44.211 238.17 44.858 L 238.17 44.858 L 238.17 44.858 Q 238.17 45.961 236.833 46.722 L 236.833 46.722 L 236.833 46.722 Q 235.532 47.482 233.991 47.901 L 233.991 47.901 L 233.991 47.901 Q 232.449 48.319 231.037 48.319 L 231.037 48.319 L 231.037 48.319 Q 226.728 48.319 224.239 45.752 L 224.239 45.752 L 224.239 45.752 Q 221.75 43.184 221.75 38.734 L 221.75 38.734 L 221.75 38.734 Q 221.75 35.882 222.846 33.676 L 222.846 33.676 L 222.846 33.676 Q 223.942 31.47 225.929 30.253 L 225.929 30.253 L 225.929 30.253 Q 227.917 29.035 230.443 29.035 L 230.443 29.035 L 230.443 29.035 Q 234.084 29.035 236.201 31.432 L 236.201 31.432 L 236.201 31.432 Q 238.319 33.828 238.319 37.898 L 238.319 37.898 L 238.319 37.898 Q 238.319 39.419 236.981 39.419 L 236.981 39.419 L 225.502 39.419 L 225.502 39.419 Q 225.874 45.314 231.037 45.314 L 231.037 45.314 L 231.037 45.314 Q 232.412 45.314 233.415 44.934 L 233.415 44.934 L 233.415 44.934 Q 234.418 44.554 235.532 43.945 L 235.532 43.945 L 235.532 43.945 Q 235.644 43.869 236.145 43.622 L 236.145 43.622 L 236.145 43.622 Q 236.647 43.375 236.981 43.375 L 236.981 43.375 Z  M 230.517 31.85 L 230.517 31.85 Q 228.363 31.85 227.062 33.257 L 227.062 33.257 L 227.062 33.257 Q 225.762 34.665 225.502 37.213 L 225.502 37.213 L 235.087 37.213 L 235.087 37.213 Q 234.975 34.627 233.805 33.238 L 233.805 33.238 L 233.805 33.238 Q 232.635 31.85 230.517 31.85 L 230.517 31.85 Z " fill="rgb(89,144,255)"/></g></svg>